<svg width="22" height="22" viewBox="0 0 22 22" fill="none" xmlns="http://www.w3.org/2000/svg">
<path d="M1.8335 11.9165L1.8335 13.7498C1.8335 18.3332 3.66683 20.1665 8.25016 20.1665L13.7502 20.1665C18.3335 20.1665 20.1668 18.3332 20.1668 13.7498L20.1668 8.24984C20.1668 3.6665 18.3335 1.83317 13.7502 1.83317L11.9168 1.83317" stroke="white" stroke-width="1.5" stroke-linecap="round" stroke-linejoin="round"/>
<path d="M2.76832 7.29678L9.99165 14.5201C10.2667 14.7951 10.8075 15.0701 11.2017 15.1251L13.9608 15.5193C14.96 15.6659 15.6567 14.9601 15.5192 13.9609L15.125 11.2018C15.07 10.8168 14.795 10.2759 14.52 9.99178L7.29665 2.76844C6.04999 1.52178 4.60165 0.935111 2.76832 2.76844C0.934987 4.60178 1.52165 6.05011 2.76832 7.29678Z" stroke="white" stroke-width="1.5" stroke-miterlimit="10" stroke-linecap="round" stroke-linejoin="round"/>
<path d="M3.8042 8.33252C5.99503 7.71835 7.7092 6.00419 8.33253 3.80419" stroke="white" stroke-width="1.5" stroke-miterlimit="10" stroke-linecap="round" stroke-linejoin="round"/>
</svg>
