<svg viewBox="0 0 24 24" fill="none" xmlns="http://www.w3.org/2000/svg">
<g clip-path="url(#clip0_222_204)">
<path d="M17.0561 6.94404L17.056 6.94397C17.0136 6.90158 16.95 6.8885 16.8943 6.91079L9.82321 9.73922C9.77638 9.75795 9.74212 9.79894 9.73198 9.84832L9.73198 9.84834C9.72184 9.89774 9.73721 9.9489 9.7728 9.98449L9.77285 9.98453L14.0155 14.2272L17.0561 6.94404ZM17.0561 6.94404C17.0985 6.98644 17.1115 7.05002 17.0892 7.10574L17.0892 7.10577M17.0561 6.94404L17.0892 7.10577M17.0892 7.10577L14.2608 14.1768L14.2608 14.1769M17.0892 7.10577L14.2608 14.1769M14.2608 14.1769C14.2421 14.2236 14.2012 14.2579 14.1517 14.2681L14.2608 14.1769ZM10.6386 9.73615L10.1458 9.93327L10.5211 10.3086L13.6914 13.4789L14.0667 13.8542L14.2639 13.3614L16.3775 8.07758L16.6808 7.31933L15.9225 7.62263L10.6386 9.73615Z" fill="none" stroke="#09766F" stroke-width="1"/>
<path fill-rule="evenodd" clip-rule="evenodd" d="M9.77771 9.38864C9.94235 9.35485 10.113 9.40603 10.2318 9.52488L14.4744 13.7675C14.5933 13.8863 14.6445 14.0569 14.6107 14.2216C14.5769 14.3862 14.4626 14.5228 14.3066 14.5853L7.23551 17.4137C7.04981 17.488 6.8377 17.4444 6.69627 17.303C6.55483 17.1616 6.5113 16.9495 6.58558 16.7638L9.41401 9.69273C9.47643 9.53668 9.61307 9.42243 9.77771 9.38864ZM10.0609 10.7681L7.94735 16.0519L13.2312 13.9384L10.0609 10.7681Z" fill="#09766F"/>
<rect width="24" height="24" rx="4" stroke="#09766F" stroke-width="1"/>
</g>
<defs>
<clipPath id="clip0_222_204">
<rect width="24" height="24" fill="none"/>
</clipPath>
</defs>
</svg>
