<svg width="25" height="25" viewBox="0 0 25 25" fill="none" xmlns="http://www.w3.org/2000/svg">
<path d="M12.5 22.9167H12.0521C9.43214 22.7667 6.96139 21.6487 5.11932 19.7796C3.27725 17.9106 2.19525 15.4239 2.08331 12.8021C2.03023 11.0348 2.42788 9.28302 3.23881 7.71184C4.04974 6.14066 5.24725 4.80176 6.71857 3.82123C8.18989 2.8407 9.88658 2.25082 11.6488 2.10714C13.4111 1.96347 15.1809 2.27073 16.7916 2.99999C16.9785 3.08796 17.1458 3.21259 17.2836 3.36648C17.4214 3.52037 17.5269 3.70038 17.5937 3.89582C17.6596 4.09371 17.6843 4.30296 17.6664 4.51074C17.6485 4.71852 17.5883 4.92045 17.4896 5.10415L16.1458 7.58332C15.9681 7.91182 15.6742 8.1622 15.3217 8.2855C14.9691 8.40879 14.5833 8.39613 14.2396 8.24999C13.3732 7.90953 12.4251 7.83471 11.5161 8.03506C10.6071 8.23542 9.77833 8.70187 9.13539 9.37499C8.70485 9.84017 8.37524 10.3894 8.16729 10.9882C7.95934 11.5869 7.87754 12.2222 7.92706 12.8542C7.98913 13.4649 8.17437 14.0566 8.47157 14.5938C8.76877 15.1309 9.17177 15.6022 9.65623 15.9792C10.1523 16.3892 10.7271 16.6931 11.3452 16.8723C11.9633 17.0515 12.6116 17.102 13.25 17.0208C13.7935 16.9478 14.3166 16.7652 14.7875 16.4841C15.2584 16.203 15.6674 15.8292 15.9896 15.3854H12.9687C12.5699 15.3854 12.1873 15.2277 11.9044 14.9467C11.6214 14.6657 11.4611 14.2842 11.4583 13.8854V11.0937C11.4583 10.6931 11.6174 10.309 11.9007 10.0257C12.184 9.74245 12.5681 9.58332 12.9687 9.58332H21.4062C21.8042 9.58601 22.1852 9.74458 22.4676 10.025C22.75 10.3054 22.9112 10.6854 22.9166 11.0833V13.0417C22.7777 15.7094 21.6192 18.2218 19.6806 20.0596C17.7419 21.8975 15.1713 22.9203 12.5 22.9167V22.9167ZM12.5 4.16665C11.3843 4.16615 10.2798 4.3897 9.25213 4.82403C8.22443 5.25837 7.29442 5.89465 6.51724 6.69515C5.74006 7.49564 5.13154 8.44405 4.72776 9.48413C4.32398 10.5242 4.13317 11.6348 4.16664 12.75C4.25623 14.8456 5.12124 16.8331 6.59377 18.3268C8.0663 19.8205 10.0413 20.7138 12.1354 20.8333C14.334 20.9325 16.4826 20.1579 18.1122 18.6786C19.7418 17.1993 20.72 15.1354 20.8333 12.9375V11.6667H13.5416V13.3125H19.0729L18.6458 14.6667C18.3087 15.8161 17.6484 16.8445 16.7435 17.6294C15.8386 18.4142 14.7272 18.9225 13.5416 19.0937C12.6249 19.2267 11.6908 19.1725 10.7956 18.9344C9.90041 18.6963 9.06279 18.2792 8.33331 17.7083C7.61454 17.1445 7.02078 16.4374 6.58969 15.6319C6.1586 14.8265 5.89958 13.9402 5.82907 13.0294C5.75855 12.1186 5.87808 11.203 6.18006 10.3408C6.48204 9.47864 6.95989 8.6886 7.58331 8.02082C8.4552 7.08109 9.57524 6.4073 10.814 6.07734C12.0527 5.74739 13.3595 5.77474 14.5833 6.15624L15.3854 4.66665C14.4612 4.32882 13.4839 4.15947 12.5 4.16665V4.16665Z" fill="#09766F"/>
</svg>
