<svg width="16" height="12" viewBox="0 0 16 12" fill="none" xmlns="http://www.w3.org/2000/svg">
<path d="M14 11L4 1M7.2 4.96105C6.95105 5.2355 6.8 5.59602 6.8 5.99087C6.8 6.85073 7.51634 7.54778 8.4 7.54778C8.80743 7.54778 9.17929 7.39959 9.46177 7.15559M14.0259 7.54778C14.5767 6.72322 14.8 6.05075 14.8 6.05075C14.8 6.05075 13.3436 1.4 8.4 1.4C8.12246 1.4 7.85591 1.41466 7.6 1.44233M12 9.5663C11.0817 10.1521 9.89955 10.5663 8.4 10.5418C3.51795 10.462 2 6.05075 2 6.05075C2 6.05075 2.70524 3.79872 4.8 2.42888" stroke="#BDBDBD" stroke-width="2" stroke-linecap="round"/>
</svg>
