<?xml version="1.0" ?>

<!DOCTYPE svg  PUBLIC '-//W3C//DTD SVG 1.1//EN'  'http://www.w3.org/Graphics/SVG/1.1/DTD/svg11.dtd'>

<!-- Uploaded to: SVG Repo, www.svgrepo.com, Generator: SVG Repo Mixer Tools -->
<svg viewBox="0 0 32 32" style="fill-rule:evenodd;clip-rule:evenodd;stroke-linejoin:round;stroke-miterlimit:1.41421;" version="1.1" xml:space="preserve" xmlns="http://www.w3.org/2000/svg" xmlns:serif="http://www.serif.com/" xmlns:xlink="http://www.w3.org/1999/xlink">

<rect height="32" id="Pin" style="fill:none;" width="32" x="0" y="0"/>

<g id="Pin1">

<path d="M10.845,17.429c0.086,0.013 0.109,0.013 0.192,0.039c0.126,0.038 0.243,0.101 0.344,0.184c0.026,0.02 0.049,0.044 0.073,0.066l2.829,2.828c0.022,0.024 0.045,0.047 0.066,0.073c0.227,0.277 0.29,0.681 0.15,1.017c-0.037,0.091 -0.088,0.176 -0.15,0.252c-0.021,0.025 -0.044,0.048 -0.066,0.072l-6.789,6.788c-0.021,0.02 -0.042,0.041 -0.065,0.06c-0.068,0.057 -0.143,0.105 -0.224,0.142c-0.072,0.033 -0.092,0.036 -0.167,0.059l-3.818,0.99c-0.032,0.007 -0.064,0.015 -0.097,0.02c-0.358,0.056 -0.74,-0.098 -0.958,-0.393c-0.157,-0.212 -0.225,-0.488 -0.184,-0.749c0.005,-0.032 0.013,-0.064 0.02,-0.097l0.99,-3.818c0.009,-0.028 0.016,-0.057 0.026,-0.085c0.03,-0.083 0.071,-0.163 0.121,-0.235c0.045,-0.065 0.061,-0.078 0.114,-0.136l6.788,-6.788c0.065,-0.059 0.079,-0.076 0.152,-0.125c0.108,-0.073 0.232,-0.124 0.36,-0.149c0.086,-0.017 0.108,-0.015 0.195,-0.019c0.033,0.001 0.065,0.003 0.098,0.004Z" style="fill:#f2f2f2;"/>

<path d="M12.868,19.132l1.415,1.414c0.022,0.024 0.045,0.047 0.066,0.073c0.227,0.277 0.29,0.681 0.15,1.017c-0.037,0.091 -0.088,0.176 -0.15,0.252c-0.021,0.025 -0.044,0.048 -0.066,0.072l-6.789,6.788c-0.021,0.02 -0.042,0.041 -0.065,0.06c-0.068,0.057 -0.143,0.105 -0.224,0.142c-0.072,0.033 -0.092,0.036 -0.167,0.059l-3.818,0.99c-0.032,0.007 -0.064,0.015 -0.097,0.02c-0.31,0.049 -0.637,-0.06 -0.861,-0.281l10.606,-10.606Z" style="fill:#d9d9d9;"/>

<path d="M6.52,14.167c0.843,-0.839 1.947,-1.448 3.125,-1.721c1.22,-0.282 2.517,-0.213 3.708,0.18c0.09,0.03 0.18,0.061 0.27,0.095l6.569,-6.569c-0.298,-0.608 -0.39,-1.333 -0.231,-2.001c0.182,-0.761 0.691,-1.441 1.383,-1.824c0.409,-0.226 0.876,-0.348 1.34,-0.357c0.021,-0.001 0.043,-0.001 0.064,-0.001c0.763,0.004 1.514,0.31 2.069,0.829c0.022,0.021 0.044,0.042 0.066,0.064c1.418,1.415 2.833,2.833 4.249,4.249c0.601,0.603 0.94,1.459 0.895,2.306c-0.036,0.668 -0.308,1.32 -0.77,1.81c-0.019,0.02 -0.038,0.039 -0.057,0.058c0,0 -0.041,0.041 -0.073,0.071c-0.601,0.56 -1.45,0.833 -2.272,0.745c-0.349,-0.038 -0.691,-0.138 -1.007,-0.292l-6.569,6.569c0.356,0.95 0.513,2.01 0.422,3.048c-0.126,1.445 -0.732,2.843 -1.73,3.911c-0.031,0.034 -0.063,0.068 -0.096,0.101l-0.032,0.033l0.021,-0.024l-0.067,0.069l-0.073,0.063c-0.027,0.018 -0.052,0.038 -0.079,0.055c-0.298,0.188 -0.696,0.204 -1.01,0.034c-0.057,-0.031 -0.11,-0.067 -0.16,-0.108c-0.025,-0.02 -0.047,-0.043 -0.071,-0.064l-9.9,-9.9c-0.021,-0.023 -0.043,-0.045 -0.063,-0.07c-0.201,-0.243 -0.277,-0.585 -0.197,-0.891c0.041,-0.153 0.117,-0.295 0.223,-0.413c0.021,-0.024 0.044,-0.045 0.066,-0.068l-0.013,0.013l-0.008,0.008l0.007,-0.008l0.001,0Z" style="fill:#f44336;"/>

<path d="M27.011,4.989c0.707,0.707 1.414,1.415 2.121,2.122c0.601,0.603 0.94,1.459 0.895,2.306c-0.036,0.668 -0.308,1.32 -0.77,1.81c-0.019,0.02 -0.038,0.039 -0.057,0.058c0,0 -0.041,0.041 -0.073,0.071c-0.601,0.56 -1.45,0.833 -2.272,0.745c-0.349,-0.038 -0.691,-0.138 -1.007,-0.292l-6.569,6.569c0.356,0.95 0.513,2.01 0.422,3.048c-0.126,1.445 -0.732,2.843 -1.73,3.911c-0.031,0.034 -0.063,0.068 -0.096,0.101l-0.032,0.033l0.021,-0.024l-0.067,0.069l-0.073,0.063c-0.027,0.018 -0.052,0.038 -0.079,0.055c-0.298,0.188 -0.696,0.204 -1.01,0.034c-0.057,-0.031 -0.11,-0.067 -0.16,-0.108c-0.025,-0.02 -0.047,-0.043 -0.071,-0.064l-4.95,-4.95l15.557,-15.557Z" style="fill:#c62828;"/>

</g>

</svg>