<svg  viewBox="0 0 26 26" fill="none" xmlns="http://www.w3.org/2000/svg">
<path d="M1 9.55474C1 9.06221 1.25069 8.60014 1.67276 8.31471L12.0728 1.28156C12.6279 0.906145 13.3721 0.906146 13.9272 1.28156L24.3272 8.31471C24.7493 8.60014 25 9.06221 25 9.55474V22.7176C25 23.9781 23.9255 25 22.6 25H3.4C2.07452 25 1 23.9781 1 22.7176V9.55474Z" stroke="#09766F" stroke-width="1"/>
<path d="M16 14.5C16 16.1569 14.6569 17.5 13 17.5C11.3431 17.5 10 16.1569 10 14.5C10 12.8431 11.3431 11.5 13 11.5C14.6569 11.5 16 12.8431 16 14.5Z" stroke="#09766F" stroke-width="1"/>
</svg>
