<svg width="44" height="44" viewBox="0 0 26 26" fill="none" xmlns="http://www.w3.org/2000/svg">
<path d="M3.25 22.7503C3.68045 22.2682 6.57231 19.9971 8.00969 18.8774C8.5332 18.4696 9.17534 18.2503 9.83893 18.2503C11.4435 18.2503 14.5355 18.2503 16.1478 18.2503C16.8192 18.2503 17.4677 18.479 18.0082 18.8771C19.8642 20.2444 21.6041 21.2632 23.5 22.7503M5.5 25H20.5C22.9853 25 25 22.9853 25 20.5V5.5C25 3.01472 22.9853 1 20.5 1H5.5C3.01472 1 1 3.01472 1 5.5V20.5C1 22.9853 3.01472 25 5.5 25ZM17.2982 9.59005C17.2982 7.30066 15.3655 5.4301 13 5.4301C10.6345 5.4301 8.70181 7.30066 8.70181 9.59005C8.70181 11.8794 10.6345 13.75 13 13.75C15.3655 13.75 17.2982 11.8794 17.2982 9.59005Z" stroke="#09766F" stroke-width="1"/>
</svg>
