<svg width="24" height="24" viewBox="0 0 24 24" fill="none" xmlns="http://www.w3.org/2000/svg">
<path d="M12 20.5L7 20.5C4 20.5 2 19 2 15.5L2 8.5C2 5 4 3.5 7 3.5L17 3.5C20 3.5 22 5 22 8.5L22 11.5" stroke="white" stroke-width="1.5" stroke-miterlimit="10" stroke-linecap="round" stroke-linejoin="round"/>
<path d="M17 9L13.87 11.5C12.84 12.32 11.15 12.32 10.12 11.5L7 9" stroke="white" stroke-width="1.5" stroke-miterlimit="10" stroke-linecap="round" stroke-linejoin="round"/>
<path d="M23 18C23 18.75 22.79 19.46 22.42 20.06C22.21 20.42 21.94 20.74 21.63 21C20.93 21.63 20.01 22 19 22C17.54 22 16.27 21.22 15.58 20.06C15.21 19.46 15 18.75 15 18C15 16.74 15.58 15.61 16.5 14.88C17.19 14.33 18.06 14 19 14C21.21 14 23 15.79 23 18Z" stroke="white" stroke-width="1.5" stroke-miterlimit="10" stroke-linecap="round" stroke-linejoin="round"/>
<path d="M17.4399 18L18.4299 18.99L20.5599 17.02" stroke="white" stroke-width="1.5" stroke-linecap="round" stroke-linejoin="round"/>
</svg>
